<svg width="411" height="823" viewBox="0 0 411 823" fill="none" xmlns="http://www.w3.org/2000/svg">
<rect width="411" height="823" fill="white"/>
<rect y="24" width="411" height="751" fill="white"/>
<path fill-rule="evenodd" clip-rule="evenodd" d="M0 775V823H411V775H0Z" fill="black"/>
<path d="M300 793C300 792.448 300.448 792 301 792H313C313.552 792 314 792.448 314 793V805C314 805.552 313.552 806 313 806H301C300.448 806 300 805.552 300 805V793Z" stroke="white" stroke-width="2"/>
<path d="M213 799C213 802.866 209.866 806 206 806C202.134 806 199 802.866 199 799C199 795.134 202.134 792 206 792C209.866 792 213 795.134 213 799Z" stroke="white" stroke-width="2"/>
<path fill-rule="evenodd" clip-rule="evenodd" d="M109.999 790.983C111.332 790.212 113 791.175 113 792.715V804.287C113 805.827 111.332 806.789 109.999 806.019L99.9899 800.232C98.6579 799.462 98.6579 797.54 99.9899 796.769L109.999 790.983Z" stroke="white" stroke-width="2"/>
<mask id="mask0" mask-type="alpha" maskUnits="userSpaceOnUse" x="301" y="6" width="17" height="12">
<path fill-rule="evenodd" clip-rule="evenodd" d="M301 6L309 18L317 6H301Z" fill="white"/>
</mask>
<g mask="url(#mask0)">
<path fill-rule="evenodd" clip-rule="evenodd" d="M309 6C302.4 6 297 11.4 297 18C297 24.6 302.4 30 309 30C315.6 30 321 24.6 321 18C321 11.4 315.6 6 309 6ZM309 27C304 27 300 23 300 18C300 13 304 9 309 9C314 9 318 13 318 18C318 23 314 27 309 27Z" fill="black" fill-opacity="0.3"/>
<path fill-rule="evenodd" clip-rule="evenodd" d="M309 9C304 9 300 13 300 18C300 23 304 27 309 27C314 27 318 23 318 18C318 13 314 9 309 9ZM309 24C305.7 24 303 21.3 303 18C303 14.7 305.7 12 309 12C312.3 12 315 14.7 315 18C315 21.3 312.3 24 309 24Z" fill="black" fill-opacity="0.9"/>
<path fill-rule="evenodd" clip-rule="evenodd" d="M309 12C305.7 12 303 14.7 303 18C303 21.3 305.7 24 309 24C312.3 24 315 21.3 315 18C315 14.7 312.3 12 309 12ZM309 21C307.3 21 306 19.7 306 18C306 16.3 307.3 15 309 15C310.7 15 312 16.3 312 18C312 19.7 310.7 21 309 21Z" fill="black" fill-opacity="0.9"/>
<path fill-rule="evenodd" clip-rule="evenodd" d="M309 21C310.657 21 312 19.6569 312 18C312 16.3431 310.657 15 309 15C307.343 15 306 16.3431 306 18C306 19.6569 307.343 21 309 21Z" fill="black" fill-opacity="0.9"/>
</g>
<mask id="mask1" mask-type="alpha" maskUnits="userSpaceOnUse" x="327" y="6" width="13" height="12">
<path fill-rule="evenodd" clip-rule="evenodd" d="M339 18V6L327 18H339Z" fill="white"/>
</mask>
<g mask="url(#mask1)">
<path fill-rule="evenodd" clip-rule="evenodd" d="M336 6V18H339V6H336Z" fill="black" fill-opacity="0.3"/>
<path fill-rule="evenodd" clip-rule="evenodd" d="M333 6V18H336V6H333Z" fill="black" fill-opacity="0.3"/>
<path fill-rule="evenodd" clip-rule="evenodd" d="M330 6V18H333V6H330Z" fill="black" fill-opacity="0.9"/>
<path fill-rule="evenodd" clip-rule="evenodd" d="M327 6V18H330V6H327Z" fill="black" fill-opacity="0.9"/>
</g>
<mask id="mask2" mask-type="alpha" maskUnits="userSpaceOnUse" x="353" y="5" width="9" height="13">
<path fill-rule="evenodd" clip-rule="evenodd" d="M360 6H359V5H355V6H354C353.4 6 353 6.4 353 7V17C353 17.6 353.4 18 354 18H360C360.6 18 361 17.6 361 17V7C361 6.4 360.6 6 360 6Z" fill="white"/>
</mask>
<g mask="url(#mask2)">
<path fill-rule="evenodd" clip-rule="evenodd" d="M353 15V18H361V15H353Z" fill="black" fill-opacity="0.9"/>
<path fill-rule="evenodd" clip-rule="evenodd" d="M353 12V15H361V12H353Z" fill="black" fill-opacity="0.9"/>
<path fill-rule="evenodd" clip-rule="evenodd" d="M353 9V12H361V9H353Z" fill="black" fill-opacity="0.3"/>
<path fill-rule="evenodd" clip-rule="evenodd" d="M353 6V9H361V6H353Z" fill="black" fill-opacity="0.3"/>
<path fill-rule="evenodd" clip-rule="evenodd" d="M355 5V6H359V5H355Z" fill="black" fill-opacity="0.3"/>
</g>
<g opacity="0.9">
<path d="M374.628 17H373.447V9.17334L371.079 10.043V8.97656L374.444 7.71338H374.628V17ZM384.124 17H378.068V16.1558L381.267 12.6011C381.741 12.0636 382.067 11.6278 382.245 11.2935C382.427 10.9549 382.518 10.6058 382.518 10.2461C382.518 9.76367 382.372 9.368 382.08 9.05908C381.788 8.75016 381.399 8.5957 380.912 8.5957C380.328 8.5957 379.873 8.76286 379.547 9.09717C379.226 9.42725 379.065 9.88851 379.065 10.481H377.89C377.89 9.63037 378.163 8.94271 378.709 8.41797C379.259 7.89323 379.994 7.63086 380.912 7.63086C381.771 7.63086 382.45 7.85726 382.949 8.31006C383.449 8.75863 383.698 9.35742 383.698 10.1064C383.698 11.0163 383.119 12.0996 381.959 13.3564L379.484 16.0415H384.124V17ZM385.45 16.3843C385.45 16.1812 385.51 16.0119 385.628 15.8765C385.751 15.741 385.933 15.6733 386.174 15.6733C386.415 15.6733 386.597 15.741 386.72 15.8765C386.847 16.0119 386.91 16.1812 386.91 16.3843C386.91 16.5789 386.847 16.7419 386.72 16.873C386.597 17.0042 386.415 17.0698 386.174 17.0698C385.933 17.0698 385.751 17.0042 385.628 16.873C385.51 16.7419 385.45 16.5789 385.45 16.3843ZM385.457 10.7793C385.457 10.5762 385.516 10.4069 385.635 10.2715C385.757 10.1361 385.939 10.0684 386.18 10.0684C386.422 10.0684 386.604 10.1361 386.726 10.2715C386.853 10.4069 386.917 10.5762 386.917 10.7793C386.917 10.974 386.853 11.1369 386.726 11.2681C386.604 11.3993 386.422 11.4648 386.18 11.4648C385.939 11.4648 385.757 11.3993 385.635 11.2681C385.516 11.1369 385.457 10.974 385.457 10.7793ZM390.224 11.8076H391.106C391.661 11.7992 392.096 11.6532 392.414 11.3696C392.731 11.0861 392.89 10.7031 392.89 10.2207C392.89 9.13737 392.35 8.5957 391.271 8.5957C390.763 8.5957 390.357 8.7417 390.052 9.03369C389.752 9.32145 389.602 9.70443 389.602 10.1826H388.427C388.427 9.45052 388.694 8.84326 389.227 8.36084C389.765 7.87419 390.446 7.63086 391.271 7.63086C392.143 7.63086 392.826 7.86149 393.322 8.32275C393.817 8.78402 394.064 9.42513 394.064 10.2461C394.064 10.6481 393.933 11.0374 393.671 11.4141C393.413 11.7907 393.059 12.0721 392.611 12.2583C393.118 12.4191 393.51 12.6857 393.785 13.0581C394.064 13.4305 394.204 13.8854 394.204 14.4229C394.204 15.2523 393.933 15.9103 393.391 16.397C392.85 16.8836 392.145 17.127 391.278 17.127C390.41 17.127 389.703 16.8921 389.157 16.4224C388.616 15.9526 388.345 15.3327 388.345 14.5625H389.526C389.526 15.0492 389.684 15.4385 390.002 15.7305C390.319 16.0225 390.744 16.1685 391.278 16.1685C391.845 16.1685 392.278 16.0203 392.579 15.7241C392.879 15.4279 393.03 15.0026 393.03 14.4482C393.03 13.9108 392.865 13.4982 392.534 13.2104C392.204 12.9227 391.728 12.7746 391.106 12.7661H390.224V11.8076ZM401.612 13.0581C401.612 14.4334 401.377 15.4554 400.907 16.124C400.437 16.7926 399.703 17.127 398.704 17.127C397.718 17.127 396.988 16.8011 396.514 16.1494C396.04 15.4935 395.795 14.516 395.778 13.2168V11.6489C395.778 10.2905 396.013 9.28125 396.483 8.62109C396.952 7.96094 397.689 7.63086 398.692 7.63086C399.686 7.63086 400.418 7.95036 400.888 8.58936C401.358 9.22412 401.599 10.2059 401.612 11.5347V13.0581ZM400.437 11.4521C400.437 10.4577 400.298 9.73405 400.018 9.28125C399.739 8.82422 399.297 8.5957 398.692 8.5957C398.091 8.5957 397.653 8.8221 397.378 9.2749C397.103 9.7277 396.961 10.4238 396.952 11.3633V13.2422C396.952 14.2409 397.096 14.9793 397.384 15.4575C397.676 15.9315 398.116 16.1685 398.704 16.1685C399.284 16.1685 399.714 15.9442 399.993 15.4956C400.276 15.047 400.425 14.3403 400.437 13.3755V11.4521Z" fill="black"/>
</g>
<path d="M95.288 337.608H83.192V335.4H109.832V337.608H97.736V369H95.288V337.608ZM116.783 349.416C117.551 347.592 118.751 346.2 120.383 345.24C122.015 344.248 123.999 343.752 126.335 343.752V346.104L125.759 346.056C122.975 346.056 120.799 346.936 119.231 348.696C117.663 350.424 116.879 352.84 116.879 355.944V369H114.479V343.944H116.783V349.416ZM141.395 343.752C144.499 343.752 146.883 344.552 148.547 346.152C150.211 347.72 151.043 350.04 151.043 353.112V369H148.739V364.536C147.939 366.008 146.771 367.16 145.235 367.992C143.699 368.792 141.859 369.192 139.715 369.192C136.931 369.192 134.723 368.536 133.091 367.224C131.491 365.912 130.691 364.184 130.691 362.04C130.691 359.96 131.427 358.28 132.899 357C134.403 355.688 136.787 355.032 140.051 355.032H148.643V353.016C148.643 350.68 148.003 348.904 146.723 347.688C145.475 346.472 143.635 345.864 141.203 345.864C139.539 345.864 137.939 346.152 136.403 346.728C134.899 347.304 133.619 348.072 132.563 349.032L131.363 347.304C132.611 346.184 134.115 345.32 135.875 344.712C137.635 344.072 139.475 343.752 141.395 343.752ZM140.051 367.224C142.131 367.224 143.891 366.744 145.331 365.784C146.803 364.824 147.907 363.432 148.643 361.608V356.904H140.099C137.635 356.904 135.843 357.352 134.723 358.248C133.635 359.144 133.091 360.376 133.091 361.944C133.091 363.576 133.699 364.872 134.915 365.832C136.131 366.76 137.843 367.224 140.051 367.224ZM173.172 343.752C176.308 343.752 178.788 344.664 180.612 346.488C182.436 348.312 183.348 350.936 183.348 354.36V369H180.948V354.552C180.948 351.736 180.228 349.592 178.788 348.12C177.38 346.648 175.396 345.912 172.836 345.912C169.892 345.912 167.572 346.792 165.876 348.552C164.18 350.312 163.332 352.68 163.332 355.656V369H160.932V343.944H163.236V349.368C164.1 347.608 165.38 346.232 167.076 345.24C168.804 344.248 170.836 343.752 173.172 343.752ZM199.565 369.192C197.549 369.192 195.629 368.888 193.805 368.28C191.981 367.672 190.557 366.904 189.533 365.976L190.637 364.056C191.661 364.92 192.973 365.64 194.573 366.216C196.205 366.792 197.901 367.08 199.661 367.08C202.189 367.08 204.045 366.664 205.229 365.832C206.445 365 207.053 363.848 207.053 362.376C207.053 361.32 206.717 360.488 206.045 359.88C205.405 359.272 204.605 358.824 203.645 358.536C202.685 358.248 201.357 357.944 199.661 357.624C197.677 357.272 196.077 356.888 194.861 356.472C193.645 356.056 192.605 355.384 191.741 354.456C190.877 353.528 190.445 352.248 190.445 350.616C190.445 348.632 191.261 347 192.893 345.72C194.557 344.408 196.909 343.752 199.949 343.752C201.549 343.752 203.133 343.976 204.701 344.424C206.269 344.872 207.549 345.464 208.541 346.2L207.437 348.12C206.413 347.384 205.245 346.824 203.933 346.44C202.621 346.056 201.277 345.864 199.901 345.864C197.565 345.864 195.805 346.296 194.621 347.16C193.437 348.024 192.845 349.16 192.845 350.568C192.845 351.688 193.181 352.568 193.853 353.208C194.525 353.816 195.341 354.28 196.301 354.6C197.293 354.888 198.669 355.208 200.429 355.56C202.381 355.912 203.949 356.296 205.133 356.712C206.349 357.096 207.373 357.736 208.205 358.632C209.037 359.528 209.453 360.76 209.453 362.328C209.453 364.408 208.589 366.072 206.861 367.32C205.133 368.568 202.701 369.192 199.565 369.192ZM216.151 333.384H218.551V369H216.151V333.384ZM237.114 343.752C240.218 343.752 242.602 344.552 244.266 346.152C245.93 347.72 246.762 350.04 246.762 353.112V369H244.458V364.536C243.658 366.008 242.49 367.16 240.954 367.992C239.418 368.792 237.578 369.192 235.434 369.192C232.65 369.192 230.442 368.536 228.81 367.224C227.21 365.912 226.41 364.184 226.41 362.04C226.41 359.96 227.146 358.28 228.618 357C230.122 355.688 232.506 355.032 235.77 355.032H244.362V353.016C244.362 350.68 243.722 348.904 242.442 347.688C241.194 346.472 239.354 345.864 236.922 345.864C235.258 345.864 233.658 346.152 232.122 346.728C230.618 347.304 229.338 348.072 228.282 349.032L227.082 347.304C228.33 346.184 229.834 345.32 231.594 344.712C233.354 344.072 235.194 343.752 237.114 343.752ZM235.77 367.224C237.85 367.224 239.61 366.744 241.05 365.784C242.522 364.824 243.626 363.432 244.362 361.608V356.904H235.818C233.354 356.904 231.562 357.352 230.442 358.248C229.354 359.144 228.81 360.376 228.81 361.944C228.81 363.576 229.418 364.872 230.634 365.832C231.85 366.76 233.562 367.224 235.77 367.224ZM269.083 367.416C268.475 367.992 267.707 368.44 266.779 368.76C265.883 369.048 264.939 369.192 263.947 369.192C261.771 369.192 260.091 368.6 258.907 367.416C257.723 366.2 257.131 364.52 257.131 362.376V346.008H252.523V343.944H257.131V338.472H259.531V343.944H267.499V346.008H259.531V362.136C259.531 363.768 259.915 365.016 260.683 365.88C261.483 366.712 262.651 367.128 264.187 367.128C265.755 367.128 267.051 366.664 268.075 365.736L269.083 367.416ZM284.677 369.192C282.309 369.192 280.165 368.648 278.245 367.56C276.357 366.472 274.869 364.968 273.781 363.048C272.693 361.096 272.149 358.904 272.149 356.472C272.149 354.04 272.693 351.864 273.781 349.944C274.869 347.992 276.357 346.472 278.245 345.384C280.165 344.296 282.309 343.752 284.677 343.752C287.045 343.752 289.173 344.296 291.061 345.384C292.981 346.472 294.485 347.992 295.573 349.944C296.661 351.864 297.205 354.04 297.205 356.472C297.205 358.904 296.661 361.096 295.573 363.048C294.485 364.968 292.981 366.472 291.061 367.56C289.173 368.648 287.045 369.192 284.677 369.192ZM284.677 367.032C286.597 367.032 288.309 366.584 289.813 365.688C291.349 364.792 292.549 363.544 293.413 361.944C294.309 360.344 294.757 358.52 294.757 356.472C294.757 354.424 294.309 352.6 293.413 351C292.549 349.4 291.349 348.152 289.813 347.256C288.309 346.36 286.597 345.912 284.677 345.912C282.757 345.912 281.029 346.36 279.493 347.256C277.989 348.152 276.789 349.4 275.893 351C275.029 352.6 274.597 354.424 274.597 356.472C274.597 358.52 275.029 360.344 275.893 361.944C276.789 363.544 277.989 364.792 279.493 365.688C281.029 366.584 282.757 367.032 284.677 367.032ZM306.955 349.416C307.723 347.592 308.923 346.2 310.555 345.24C312.187 344.248 314.171 343.752 316.507 343.752V346.104L315.931 346.056C313.147 346.056 310.971 346.936 309.403 348.696C307.835 350.424 307.051 352.84 307.051 355.944V369H304.651V343.944H306.955V349.416Z" fill="#1789DB"/>
<path d="M202.095 475.261C196.516 475.667 190.935 474.512 185.976 471.925C181.017 469.338 176.876 465.421 174.017 460.614L186.546 462.969C186.909 463.037 187.285 462.958 187.59 462.75C187.896 462.541 188.106 462.219 188.174 461.856C188.242 461.492 188.164 461.117 187.955 460.811C187.746 460.506 187.425 460.296 187.061 460.227L171.647 457.331H171.642C171.565 457.318 171.487 457.311 171.41 457.31C171.395 457.31 171.38 457.31 171.365 457.31C171.296 457.313 171.227 457.32 171.16 457.333C171.136 457.333 171.114 457.338 171.092 457.343C171.034 457.357 170.977 457.375 170.921 457.396C170.889 457.408 170.857 457.417 170.826 457.431C170.814 457.436 170.803 457.438 170.791 457.443C170.752 457.462 170.719 457.488 170.682 457.509C170.646 457.531 170.628 457.536 170.602 457.553C170.595 457.559 170.589 457.565 170.582 457.571C170.541 457.601 170.502 457.634 170.465 457.67C170.432 457.695 170.402 457.722 170.372 457.75C170.342 457.783 170.316 457.819 170.293 457.854C170.262 457.891 170.234 457.93 170.209 457.97C170.19 458.001 170.175 458.034 170.159 458.066C170.132 458.114 170.109 458.165 170.089 458.217C170.078 458.244 170.073 458.272 170.064 458.297C170.047 458.343 170.033 458.391 170.022 458.439L167.126 473.853C167.092 474.033 167.094 474.218 167.132 474.398C167.17 474.577 167.242 474.747 167.346 474.899C167.45 475.05 167.582 475.179 167.736 475.279C167.889 475.379 168.061 475.448 168.241 475.481C168.327 475.497 168.413 475.505 168.5 475.505C168.825 475.505 169.14 475.391 169.39 475.183C169.64 474.976 169.809 474.687 169.869 474.368L172.056 462.734C175.02 467.453 179.135 471.342 184.015 474.034C188.895 476.726 194.379 478.133 199.952 478.123C200.727 478.123 201.505 478.096 202.288 478.043C202.657 478.018 203.001 477.847 203.243 477.568C203.486 477.289 203.608 476.924 203.583 476.555C203.557 476.186 203.386 475.843 203.107 475.6C202.828 475.357 202.464 475.235 202.095 475.261Z" fill="#1789DB"/>
<path d="M197.905 414.739C203.483 414.335 209.064 415.49 214.023 418.077C218.982 420.664 223.123 424.579 225.983 429.386L213.454 427.031C213.091 426.963 212.715 427.042 212.41 427.25C212.104 427.459 211.894 427.781 211.826 428.144C211.758 428.508 211.836 428.883 212.045 429.189C212.254 429.494 212.575 429.704 212.939 429.773L228.353 432.669C228.42 432.681 228.487 432.687 228.555 432.688C228.574 432.688 228.59 432.696 228.609 432.696C228.737 432.694 228.864 432.674 228.986 432.637C229.015 432.629 229.042 432.617 229.071 432.608C229.117 432.591 229.164 432.581 229.209 432.56C229.261 432.532 229.311 432.502 229.359 432.468C229.371 432.461 229.386 432.458 229.398 432.45C229.409 432.442 229.411 432.438 229.418 432.432C229.459 432.402 229.498 432.369 229.535 432.334C229.568 432.307 229.599 432.28 229.628 432.25C229.658 432.217 229.684 432.181 229.707 432.146C229.736 432.109 229.763 432.07 229.787 432.03C229.806 431.999 229.821 431.966 229.837 431.934C229.864 431.886 229.887 431.835 229.908 431.783C229.918 431.756 229.923 431.728 229.932 431.703C229.949 431.657 229.963 431.609 229.974 431.561L232.87 416.147C232.939 415.783 232.86 415.407 232.651 415.102C232.442 414.797 232.121 414.587 231.757 414.519C231.394 414.45 231.018 414.529 230.712 414.738C230.407 414.947 230.197 415.268 230.129 415.632L227.954 427.242C224.772 422.193 220.277 418.103 214.95 415.411C209.624 412.719 203.665 411.525 197.712 411.957C197.529 411.969 197.351 412.018 197.187 412.1C197.023 412.181 196.877 412.294 196.757 412.432C196.636 412.571 196.544 412.731 196.486 412.905C196.428 413.078 196.405 413.262 196.417 413.445C196.43 413.627 196.478 413.806 196.56 413.97C196.642 414.134 196.755 414.28 196.893 414.4C197.031 414.52 197.192 414.612 197.365 414.67C197.539 414.729 197.722 414.752 197.905 414.739Z" fill="#1789DB"/>
<path d="M194.422 438.027V399.18C194.422 398.81 194.275 398.455 194.013 398.194C193.752 397.932 193.397 397.785 193.027 397.785H154.18C153.81 397.785 153.455 397.932 153.194 398.194C152.932 398.455 152.785 398.81 152.785 399.18V438.027C152.785 438.397 152.932 438.752 153.194 439.013C153.455 439.275 153.81 439.422 154.18 439.422H193.027C193.397 439.422 193.752 439.275 194.013 439.013C194.275 438.752 194.422 438.397 194.422 438.027ZM191.633 436.633H155.574V400.574H191.633V436.633Z" fill="#1789DB"/>
<path d="M191.633 436.633H155.574V400.574H191.633V436.633Z" fill="#1789DB"/>
<path d="M245.82 450.578H206.973C206.603 450.578 206.248 450.725 205.987 450.987C205.725 451.248 205.578 451.603 205.578 451.973V490.82C205.578 491.19 205.725 491.545 205.987 491.806C206.248 492.068 206.603 492.215 206.973 492.215H245.82C246.19 492.215 246.545 492.068 246.806 491.806C247.068 491.545 247.215 491.19 247.215 490.82V451.973C247.215 451.603 247.068 451.248 246.806 450.987C246.545 450.725 246.19 450.578 245.82 450.578ZM244.426 489.426H208.367V453.367H244.426V489.426Z" fill="#1789DB"/>
<path d="M222.163 475.355H230.629L231.955 478.517H235.474L228.155 461H224.611L217.292 478.517H220.837L222.163 475.355ZM226.396 465.235L229.484 472.601H223.31L226.396 465.235Z" fill="#1789DB"/>
<path d="M173.888 406C176.264 406 178.472 406.516 180.512 407.548C182.552 408.58 184.184 410.068 185.408 412.012C186.656 413.932 187.28 416.2 187.28 418.816C187.28 421.384 186.68 423.652 185.48 425.62C184.28 427.588 182.66 429.112 180.62 430.192C178.604 431.248 176.408 431.776 174.032 431.776C171.656 431.776 169.472 431.248 167.48 430.192C165.488 429.136 163.904 427.648 162.728 425.728C161.576 423.784 161 421.54 161 418.996C161 418.252 161.036 417.7 161.108 417.34H183.572C183.332 415.684 182.744 414.244 181.808 413.02C180.896 411.796 179.732 410.86 178.316 410.212C176.924 409.54 175.424 409.204 173.816 409.204C172.472 409.204 171.128 409.456 169.784 409.96C168.464 410.464 167.216 411.232 166.04 412.264L163.448 409.924C164.936 408.628 166.58 407.656 168.38 407.008C170.204 406.336 172.04 406 173.888 406ZM174.032 428.608C175.664 428.608 177.176 428.248 178.568 427.528C179.984 426.808 181.136 425.8 182.024 424.504C182.936 423.184 183.476 421.672 183.644 419.968H164.636C164.78 421.672 165.284 423.184 166.148 424.504C167.012 425.8 168.128 426.808 169.496 427.528C170.888 428.248 172.4 428.608 174.032 428.608Z" fill="white"/>
<line x1="224.684" y1="458.051" x2="227.684" y2="457.051" stroke="#1789DB" stroke-width="2"/>
</svg>
